<?xml version="1.0" standalone="no"?>
<svg xmlns:xlink="http://www.w3.org/1999/xlink" id="wave" style="transform:rotate(180deg); transition: 0.3s" viewBox="0 0 1440 490" version="1.1" xmlns="http://www.w3.org/2000/svg"><defs><linearGradient id="sw-gradient-0" x1="0" x2="0" y1="1" y2="0"><stop stop-color="rgba(0, 0, 0, 0.04)" offset="0%"/><stop stop-color="rgba(255, 179, 11, 1)" offset="100%"/></linearGradient></defs><path style="transform:translate(0, 0px); opacity:1" fill="url(#sw-gradient-0)" d="M0,343L48,285.8C96,229,192,114,288,114.3C384,114,480,229,576,269.5C672,310,768,278,864,236.8C960,196,1056,147,1152,130.7C1248,114,1344,131,1440,155.2C1536,180,1632,212,1728,253.2C1824,294,1920,343,2016,326.7C2112,310,2208,229,2304,163.3C2400,98,2496,49,2592,24.5C2688,0,2784,0,2880,32.7C2976,65,3072,131,3168,138.8C3264,147,3360,98,3456,130.7C3552,163,3648,278,3744,334.8C3840,392,3936,392,4032,392C4128,392,4224,392,4320,400.2C4416,408,4512,425,4608,359.3C4704,294,4800,147,4896,73.5C4992,0,5088,0,5184,73.5C5280,147,5376,294,5472,318.5C5568,343,5664,245,5760,196C5856,147,5952,147,6048,138.8C6144,131,6240,114,6336,147C6432,180,6528,261,6624,253.2C6720,245,6816,147,6864,98L6912,49L6912,490L6864,490C6816,490,6720,490,6624,490C6528,490,6432,490,6336,490C6240,490,6144,490,6048,490C5952,490,5856,490,5760,490C5664,490,5568,490,5472,490C5376,490,5280,490,5184,490C5088,490,4992,490,4896,490C4800,490,4704,490,4608,490C4512,490,4416,490,4320,490C4224,490,4128,490,4032,490C3936,490,3840,490,3744,490C3648,490,3552,490,3456,490C3360,490,3264,490,3168,490C3072,490,2976,490,2880,490C2784,490,2688,490,2592,490C2496,490,2400,490,2304,490C2208,490,2112,490,2016,490C1920,490,1824,490,1728,490C1632,490,1536,490,1440,490C1344,490,1248,490,1152,490C1056,490,960,490,864,490C768,490,672,490,576,490C480,490,384,490,288,490C192,490,96,490,48,490L0,490Z"/><defs><linearGradient id="sw-gradient-1" x1="0" x2="0" y1="1" y2="0"><stop stop-color="rgba(243, 106, 62, 1)" offset="0%"/><stop stop-color="rgba(255, 179, 11, 1)" offset="100%"/></linearGradient></defs><path style="transform:translate(0, 50px); opacity:0.9" fill="url(#sw-gradient-1)" d="M0,98L48,155.2C96,212,192,327,288,351.2C384,376,480,310,576,310.3C672,310,768,376,864,343C960,310,1056,180,1152,106.2C1248,33,1344,16,1440,73.5C1536,131,1632,261,1728,285.8C1824,310,1920,229,2016,196C2112,163,2208,180,2304,179.7C2400,180,2496,163,2592,171.5C2688,180,2784,212,2880,204.2C2976,196,3072,147,3168,130.7C3264,114,3360,131,3456,155.2C3552,180,3648,212,3744,253.2C3840,294,3936,343,4032,359.3C4128,376,4224,359,4320,302.2C4416,245,4512,147,4608,163.3C4704,180,4800,310,4896,318.5C4992,327,5088,212,5184,204.2C5280,196,5376,294,5472,351.2C5568,408,5664,425,5760,424.7C5856,425,5952,408,6048,367.5C6144,327,6240,261,6336,204.2C6432,147,6528,98,6624,114.3C6720,131,6816,212,6864,253.2L6912,294L6912,490L6864,490C6816,490,6720,490,6624,490C6528,490,6432,490,6336,490C6240,490,6144,490,6048,490C5952,490,5856,490,5760,490C5664,490,5568,490,5472,490C5376,490,5280,490,5184,490C5088,490,4992,490,4896,490C4800,490,4704,490,4608,490C4512,490,4416,490,4320,490C4224,490,4128,490,4032,490C3936,490,3840,490,3744,490C3648,490,3552,490,3456,490C3360,490,3264,490,3168,490C3072,490,2976,490,2880,490C2784,490,2688,490,2592,490C2496,490,2400,490,2304,490C2208,490,2112,490,2016,490C1920,490,1824,490,1728,490C1632,490,1536,490,1440,490C1344,490,1248,490,1152,490C1056,490,960,490,864,490C768,490,672,490,576,490C480,490,384,490,288,490C192,490,96,490,48,490L0,490Z"/><defs><linearGradient id="sw-gradient-2" x1="0" x2="0" y1="1" y2="0"><stop stop-color="rgba(243, 106, 62, 1)" offset="0%"/><stop stop-color="rgba(255, 179, 11, 1)" offset="100%"/></linearGradient></defs><path style="transform:translate(0, 100px); opacity:0.8" fill="url(#sw-gradient-2)" d="M0,343L48,343C96,343,192,343,288,326.7C384,310,480,278,576,245C672,212,768,180,864,138.8C960,98,1056,49,1152,65.3C1248,82,1344,163,1440,204.2C1536,245,1632,245,1728,269.5C1824,294,1920,343,2016,343C2112,343,2208,294,2304,245C2400,196,2496,147,2592,138.8C2688,131,2784,163,2880,204.2C2976,245,3072,294,3168,302.2C3264,310,3360,278,3456,220.5C3552,163,3648,82,3744,106.2C3840,131,3936,261,4032,302.2C4128,343,4224,294,4320,285.8C4416,278,4512,310,4608,310.3C4704,310,4800,278,4896,261.3C4992,245,5088,245,5184,277.7C5280,310,5376,376,5472,375.7C5568,376,5664,310,5760,277.7C5856,245,5952,245,6048,204.2C6144,163,6240,82,6336,114.3C6432,147,6528,294,6624,351.2C6720,408,6816,376,6864,359.3L6912,343L6912,490L6864,490C6816,490,6720,490,6624,490C6528,490,6432,490,6336,490C6240,490,6144,490,6048,490C5952,490,5856,490,5760,490C5664,490,5568,490,5472,490C5376,490,5280,490,5184,490C5088,490,4992,490,4896,490C4800,490,4704,490,4608,490C4512,490,4416,490,4320,490C4224,490,4128,490,4032,490C3936,490,3840,490,3744,490C3648,490,3552,490,3456,490C3360,490,3264,490,3168,490C3072,490,2976,490,2880,490C2784,490,2688,490,2592,490C2496,490,2400,490,2304,490C2208,490,2112,490,2016,490C1920,490,1824,490,1728,490C1632,490,1536,490,1440,490C1344,490,1248,490,1152,490C1056,490,960,490,864,490C768,490,672,490,576,490C480,490,384,490,288,490C192,490,96,490,48,490L0,490Z"/><defs><linearGradient id="sw-gradient-3" x1="0" x2="0" y1="1" y2="0"><stop stop-color="rgba(243, 106, 62, 1)" offset="0%"/><stop stop-color="rgba(255, 179, 11, 1)" offset="100%"/></linearGradient></defs><path style="transform:translate(0, 150px); opacity:0.7" fill="url(#sw-gradient-3)" d="M0,147L48,171.5C96,196,192,245,288,269.5C384,294,480,294,576,310.3C672,327,768,359,864,326.7C960,294,1056,196,1152,155.2C1248,114,1344,131,1440,163.3C1536,196,1632,245,1728,228.7C1824,212,1920,131,2016,106.2C2112,82,2208,114,2304,138.8C2400,163,2496,180,2592,220.5C2688,261,2784,327,2880,310.3C2976,294,3072,196,3168,130.7C3264,65,3360,33,3456,49C3552,65,3648,131,3744,147C3840,163,3936,131,4032,114.3C4128,98,4224,98,4320,138.8C4416,180,4512,261,4608,261.3C4704,261,4800,180,4896,163.3C4992,147,5088,196,5184,196C5280,196,5376,147,5472,179.7C5568,212,5664,327,5760,343C5856,359,5952,278,6048,236.8C6144,196,6240,196,6336,228.7C6432,261,6528,327,6624,310.3C6720,294,6816,196,6864,147L6912,98L6912,490L6864,490C6816,490,6720,490,6624,490C6528,490,6432,490,6336,490C6240,490,6144,490,6048,490C5952,490,5856,490,5760,490C5664,490,5568,490,5472,490C5376,490,5280,490,5184,490C5088,490,4992,490,4896,490C4800,490,4704,490,4608,490C4512,490,4416,490,4320,490C4224,490,4128,490,4032,490C3936,490,3840,490,3744,490C3648,490,3552,490,3456,490C3360,490,3264,490,3168,490C3072,490,2976,490,2880,490C2784,490,2688,490,2592,490C2496,490,2400,490,2304,490C2208,490,2112,490,2016,490C1920,490,1824,490,1728,490C1632,490,1536,490,1440,490C1344,490,1248,490,1152,490C1056,490,960,490,864,490C768,490,672,490,576,490C480,490,384,490,288,490C192,490,96,490,48,490L0,490Z"/></svg>